<mxfile host="app.diagrams.net" modified="2024-02-09T01:50:03.991Z" agent="Mozilla/5.0 (Windows NT 10.0; Win64; x64) AppleWebKit/537.36 (KHTML, like Gecko) Chrome/121.0.0.0 Safari/537.36" etag="Rqgv10enkF1KZI9C6OY7" version="23.1.2" type="github">
  <diagram name="Page-1" id="JGJ-66y3hG4s53N1xUql">
    <mxGraphModel dx="1434" dy="738" grid="1" gridSize="10" guides="1" tooltips="1" connect="1" arrows="1" fold="1" page="1" pageScale="1" pageWidth="850" pageHeight="1100" math="0" shadow="0">
      <root>
        <mxCell id="0" />
        <mxCell id="1" parent="0" />
        <mxCell id="1F83YBrqJTdhGo12GGBh-1" value="&#xa;  &#xa;    &#xa;      &#xa;        &#xa;        &#xa;        &#xa;          &#xa;        &#xa;        &#xa;          &#xa;            &#xa;            &#xa;          &#xa;        &#xa;        &#xa;          &#xa;        &#xa;        &#xa;          &#xa;        &#xa;        &#xa;          &#xa;        &#xa;        &#xa;          &#xa;        &#xa;        &#xa;          &#xa;            &#xa;            &#xa;          &#xa;        &#xa;        &#xa;          &#xa;            &#xa;            &#xa;              &#xa;              &#xa;            &#xa;          &#xa;        &#xa;        &#xa;          &#xa;        &#xa;        &#xa;          &#xa;        &#xa;        &#xa;          &#xa;        &#xa;        &#xa;          &#xa;        &#xa;        &#xa;          &#xa;        &#xa;        &#xa;          &#xa;        &#xa;        &#xa;          &#xa;        &#xa;        &#xa;          &#xa;        &#xa;        &#xa;          &#xa;        &#xa;        &#xa;          &#xa;            &#xa;          &#xa;        &#xa;        &#xa;          &#xa;        &#xa;      &#xa;    &#xa;  &#xa;" style="text;whiteSpace=wrap;html=1;" vertex="1" parent="1">
          <mxGeometry x="40" y="40" width="30" height="1170" as="geometry" />
        </mxCell>
        <mxCell id="1F83YBrqJTdhGo12GGBh-2" value="&#xa;  &#xa;    &#xa;      &#xa;        &#xa;        &#xa;        &#xa;          &#xa;        &#xa;        &#xa;          &#xa;            &#xa;            &#xa;          &#xa;        &#xa;        &#xa;          &#xa;        &#xa;        &#xa;          &#xa;        &#xa;        &#xa;          &#xa;        &#xa;        &#xa;          &#xa;        &#xa;        &#xa;          &#xa;            &#xa;            &#xa;          &#xa;        &#xa;        &#xa;          &#xa;            &#xa;            &#xa;              &#xa;              &#xa;            &#xa;          &#xa;        &#xa;        &#xa;          &#xa;        &#xa;        &#xa;          &#xa;        &#xa;        &#xa;          &#xa;        &#xa;        &#xa;          &#xa;        &#xa;        &#xa;          &#xa;        &#xa;        &#xa;          &#xa;        &#xa;        &#xa;          &#xa;        &#xa;        &#xa;          &#xa;        &#xa;        &#xa;          &#xa;        &#xa;        &#xa;          &#xa;            &#xa;          &#xa;        &#xa;        &#xa;          &#xa;        &#xa;      &#xa;    &#xa;  &#xa;" style="text;whiteSpace=wrap;html=1;" vertex="1" parent="1">
          <mxGeometry x="80" y="1250" width="30" height="1170" as="geometry" />
        </mxCell>
        <mxCell id="1F83YBrqJTdhGo12GGBh-3" value="" style="image;aspect=fixed;html=1;points=[];align=center;fontSize=12;image=img/lib/azure2/other/Azure_Center_for_SAP.svg;" vertex="1" parent="1">
          <mxGeometry x="310" y="2230" width="68" height="68" as="geometry" />
        </mxCell>
        <mxCell id="1F83YBrqJTdhGo12GGBh-4" value="" style="image;aspect=fixed;html=1;points=[];align=center;fontSize=12;image=img/lib/azure2/other/Virtual_Instance_for_SAP.svg;" vertex="1" parent="1">
          <mxGeometry x="210" y="2240" width="68" height="62.839999999999996" as="geometry" />
        </mxCell>
        <mxCell id="1F83YBrqJTdhGo12GGBh-5" value="" style="verticalLabelPosition=bottom;sketch=0;html=1;fillColor=#6ABD46;strokeColor=#ffffff;verticalAlign=top;align=center;points=[[0.085,0.085,0],[0.915,0.085,0],[0.915,0.915,0],[0.085,0.915,0],[0.25,0,0],[0.5,0,0],[0.75,0,0],[1,0.25,0],[1,0.5,0],[1,0.75,0],[0.75,1,0],[0.5,1,0],[0.25,1,0],[0,0.75,0],[0,0.5,0],[0,0.25,0]];pointerEvents=1;shape=mxgraph.cisco_safe.compositeIcon;bgIcon=mxgraph.cisco_safe.architecture.generic_appliance;resIcon=mxgraph.cisco_safe.architecture.aci_leaf_switch;" vertex="1" parent="1">
          <mxGeometry x="50" y="2370" width="50" height="50" as="geometry" />
        </mxCell>
        <mxCell id="1F83YBrqJTdhGo12GGBh-6" value="" style="shape=image;verticalLabelPosition=bottom;verticalAlign=top;imageAspect=0;aspect=fixed;image=data:image/svg+xml,PHN2ZyB4bWxucz0iaHR0cDovL3d3dy53My5vcmcvMjAwMC9zdmciIGlkPSJidXNpbmVzc3J1bGVzIiB2aWV3Qm94PSI0Ljk5OTM5Mjk4NjI5NzYwNyA0Ljk4NjUxMzYxNDY1NDU0MSA0NS4wMDE5NDkzMTAzMDI3MzQgNDUuMDE1NzA1MTA4NjQyNTgiIHdpZHRoPSI0NS4wMDE5NDkzMTAzMDI3MzQiIGhlaWdodD0iNDUuMDE1NzA1MTA4NjQyNTgiPjxkZWZzPjxzdHlsZT4uY2xzLTF7ZmlsbDojMGE2ZWQxO30uY2xzLTJ7ZmlsbDojMDUzYjcwO308L3N0eWxlPjwvZGVmcz48dGl0bGU+YnVzaW5lc3NydWxlczwvdGl0bGU+PHBhdGggY2xhc3M9ImNscy0xIiBkPSJNNDcsMTFIMTRhMi44ODksMi44ODksMCwwLDAtMywzVjQ3YTIuODg5LDIuODg5LDAsMCwwLDMsM0g0N2EyLjk2MiwyLjk2MiwwLDAsMCwyLjEwOS0uODQ0QTIuODQ0LDIuODQ0LDAsMCwwLDUwLDQ3VjE0YTIuODQ1LDIuODQ1LDAsMCwwLS44OTEtMi4xNTZBMi45NjIsMi45NjIsMCwwLDAsNDcsMTFaTTE0LDE0aDl2OUgxNFptMCwxMmg5djlIMTRabTAsMjFWMzhoOXY5Wk0zNSwxNHY5SDI2VjE0Wm0wLDEydjlIMjZWMjZaTTI2LDQ3VjM4aDl2OVpNNDcsMjNIMzhWMTRoOVptMCwxMkgzOFYyNmg5Wm0wLDEySDM4VjM4aDlaIi8+PHBhdGggY2xhc3M9ImNscy0yIiBkPSJNNi41LDE0YTEuNTA5LDEuNTA5LDAsMCwwLTEuMDMxLjQyMkExLjM4MSwxLjM4MSwwLDAsMCw1LDE1LjV2NmExLjM4LDEuMzgsMCwwLDAsLjQ2OSwxLjA3OEExLjUwOSwxLjUwOSwwLDAsMCw2LjUsMjMsMS4zMjYsMS4zMjYsMCwwLDAsOCwyMS41di02QTEuMzI3LDEuMzI3LDAsMCwwLDYuNSwxNFoiLz48cGF0aCBjbGFzcz0iY2xzLTIiIGQ9Ik02LjUsMjZhMS41MDksMS41MDksMCwwLDAtMS4wMzEuNDIyQTEuMzgxLDEuMzgxLDAsMCwwLDUsMjcuNXY2YTEuMzgxLDEuMzgxLDAsMCwwLC40NjksMS4wNzhBMS41MDksMS41MDksMCwwLDAsNi41LDM1LDEuMzI3LDEuMzI3LDAsMCwwLDgsMzMuNXYtNkExLjMyNywxLjMyNywwLDAsMCw2LjUsMjZaIi8+PHBhdGggY2xhc3M9ImNscy0yIiBkPSJNNi41LDM4LjA5NGExLjUsMS41LDAsMCwwLTEuMDMxLjQyMkExLjM4MSwxLjM4MSwwLDAsMCw1LDM5LjU5NHY2YTEuMzgzLDEuMzgzLDAsMCwwLC40NjksMS4wNzgsMS41MDksMS41MDksMCwwLDAsMS4wMzEuNDIyLDEuMzI3LDEuMzI3LDAsMCwwLDEuNS0xLjV2LTZBMS4zMjcsMS4zMjcsMCwwLDAsNi41LDM4LjA5NFoiLz48cGF0aCBjbGFzcz0iY2xzLTIiIGQ9Ik0yMS40MDYsNWgtNmExLjMyNiwxLjMyNiwwLDAsMC0xLjUsMS41LDEuNTA5LDEuNTA5LDAsMCwwLC40MjIsMS4wMzFBMS4zOCwxLjM4LDAsMCwwLDE1LjQwNiw4aDZhMS4zODEsMS4zODEsMCwwLDAsMS4wNzgtLjQ2OUExLjUsMS41LDAsMCwwLDIyLjkwNiw2LjUsMS4zMjcsMS4zMjcsMCwwLDAsMjEuNDA2LDVaIi8+PHBhdGggY2xhc3M9ImNscy0yIiBkPSJNMzMuNDA2LDVoLTZhMS4zMjYsMS4zMjYsMCwwLDAtMS41LDEuNSwxLjUwOSwxLjUwOSwwLDAsMCwuNDIyLDEuMDMxQTEuMzgsMS4zOCwwLDAsMCwyNy40MDYsOGg2YTEuMzgxLDEuMzgxLDAsMCwwLDEuMDc4LS40NjlBMS41LDEuNSwwLDAsMCwzNC45MDYsNi41LDEuMzI3LDEuMzI3LDAsMCwwLDMzLjQwNiw1WiIvPjxwYXRoIGNsYXNzPSJjbHMtMiIgZD0iTTQ1LjUsNWgtNkExLjMyNSwxLjMyNSwwLDAsMCwzOCw2LjVhMS41MDksMS41MDksMCwwLDAsLjQyMiwxLjAzMUExLjM3OCwxLjM3OCwwLDAsMCwzOS41LDhoNmExLjM4MSwxLjM4MSwwLDAsMCwxLjA3OC0uNDY5QTEuNTA5LDEuNTA5LDAsMCwwLDQ3LDYuNSwxLjMyNywxLjMyNywwLDAsMCw0NS41LDVaIi8+PC9zdmc+;" vertex="1" parent="1">
          <mxGeometry x="380" y="2350" width="45" height="45" as="geometry" />
        </mxCell>
        <mxCell id="1F83YBrqJTdhGo12GGBh-7" value="" style="shape=image;verticalLabelPosition=bottom;verticalAlign=top;imageAspect=0;aspect=fixed;image=data:image/svg+xml,PHN2ZyB4bWxucz0iaHR0cDovL3d3dy53My5vcmcvMjAwMC9zdmciIGlkPSJmZWF0dXJlZmxhZ3MiIHZpZXdCb3g9IjEwIDguNSAzNiAzOSIgd2lkdGg9IjM2IiBoZWlnaHQ9IjM5Ij48ZGVmcz48c3R5bGU+LmNscy0xe2ZpbGw6IzBhNmVjZjt9LmNscy0ye2ZpbGw6IzA2M2I3MDt9PC9zdHlsZT48L2RlZnM+PHRpdGxlPmZlYXR1cmVmbGFnczwvdGl0bGU+PHBhdGggY2xhc3M9ImNscy0xIiBkPSJNMzcsMjkuNUgxOWE5LDksMCwwLDAsMCwxOEgzN2E5LDksMCwwLDAsMC0xOFptMCwxNS43NUgxOWE2Ljc1LDYuNzUsMCwwLDEsMC0xMy41SDM3YTYuNzUsNi43NSwwLDAsMSwwLDEzLjVaIi8+PHBhdGggY2xhc3M9ImNscy0xIiBkPSJNMTksMjYuNUgzN2E5LDksMCwwLDAsMC0xOEgxOWE5LDksMCwwLDAsMCwxOFptMTgtMTVhNiw2LDAsMSwxLTYsNkE2LDYsMCwwLDEsMzcsMTEuNVoiLz48Y2lyY2xlIGNsYXNzPSJjbHMtMiIgY3g9IjM3IiBjeT0iMTcuNSIgcj0iNC4xMjUiLz48cGF0aCBjbGFzcz0iY2xzLTIiIGQ9Ik0xOSwzMy42MjVBNC44NzUsNC44NzUsMCwxLDAsMjMuODc1LDM4LjUsNC44NzUsNC44NzUsMCwwLDAsMTksMzMuNjI1Wm0wLDcuNUEyLjYyNSwyLjYyNSwwLDEsMSwyMS42MjUsMzguNSwyLjYyOSwyLjYyOSwwLDAsMSwxOSw0MS4xMjVaIi8+PC9zdmc+;" vertex="1" parent="1">
          <mxGeometry x="370" y="2490" width="36" height="39" as="geometry" />
        </mxCell>
        <mxCell id="1F83YBrqJTdhGo12GGBh-8" value="" style="shape=image;verticalLabelPosition=bottom;verticalAlign=top;imageAspect=0;aspect=fixed;image=data:image/svg+xml,PHN2ZyB4bWxucz0iaHR0cDovL3d3dy53My5vcmcvMjAwMC9zdmciIGlkPSJtb25pdG9yaW5nLXNlcnZpY2UiIHZpZXdCb3g9IjMuOTk4ODU4NjkwMjYxODQxIDYuOTk5Njg2MjQxMTQ5OTAyIDQ4LjAwNDg2NzU1MzcxMDk0IDQyLjAwMDMxMjgwNTE3NTc4IiB3aWR0aD0iNDguMDA0ODY3NTUzNzEwOTQiIGhlaWdodD0iNDIuMDAwMzEyODA1MTc1NzgiPjxkZWZzPjxzdHlsZT4uY2xzLTF7ZmlsbDojMDUzYjcwO30uY2xzLTJ7ZmlsbDojMGE2ZWQxO308L3N0eWxlPjwvZGVmcz48dGl0bGU+bW9uaXRvcmluZy1zZXJ2aWNlPC90aXRsZT48cGF0aCBjbGFzcz0iY2xzLTEiIGQ9Ik01MS4yLDcuOEEzLjMsMy4zLDAsMCwwLDQ5LDdIN2EzLjIyNywzLjIyNywwLDAsMC0yLjEuOEEyLjk0LDIuOTQsMCwwLDAsNCwxMFY0MGEyLjg3OCwyLjg3OCwwLDAsMCwuOSwyLjFBMi44NzgsMi44NzgsMCwwLDAsNyw0M0g0OWEyLjk0LDIuOTQsMCwwLDAsMi4yLS45QTIuNzgyLDIuNzgyLDAsMCwwLDUyLDQwVjEwQTMuMywzLjMsMCwwLDAsNTEuMiw3LjhaTTQ5LDQwSDdWMjYuN2g3LjlhLjYuNiwwLDAsMCwuNi0uM2wyLTIuNiwyLjksNy43YS42ODguNjg4LDAsMCwwLC44LjUuNjY5LjY2OSwwLDAsMCwuNy0uNkwyNS43LDE3bDMuNSwyMC4xYS44NDkuODQ5LDAsMCwwLC44LjdoMGEuODcxLjg3MSwwLDAsMCwuOC0uNmwzLjktMTYuN0wzNywyNi4xYS43OTIuNzkyLDAsMCwwLC44LjVINDlabTAtMTUuMUgzOC41bC0zLjEtNy41YS44OTEuODkxLDAsMCwwLS44LS41Ljc0OS43NDksMCwwLDAtLjcuNkwzMC4zLDMyLjksMjYuOCwxM2EuOTY5Ljk2OSwwLDAsMC0uOC0uNy44MzguODM4LDAsMCwwLS44LjZMMjEuMSwyOC40bC0yLjUtNi43YS43MzguNzM4LDAsMCwwLS42LS41LDEuMTM1LDEuMTM1LDAsMCwwLS44LjNMMTQuNSwyNUg3VjEwSDQ5WiIvPjxwYXRoIGNsYXNzPSJjbHMtMiIgZD0iTTM4LjUsMjQuOWwtMy4xLTcuNWEuODkxLjg5MSwwLDAsMC0uOC0uNS43NDkuNzQ5LDAsMCwwLS43LjZMMzAuMywzMi45LDI2LjgsMTNhLjk2OS45NjksMCwwLDAtLjgtLjcuODM4LjgzOCwwLDAsMC0uOC42TDIxLjEsMjguNGwtMi41LTYuN2EuNzM4LjczOCwwLDAsMC0uNi0uNSwxLjEzNSwxLjEzNSwwLDAsMC0uOC4zTDE0LjUsMjVIN3YxLjdoNy45YS42LjYsMCwwLDAsLjYtLjNsMi0yLjYsMi45LDcuN2EuNjg4LjY4OCwwLDAsMCwuOC41LjY2OS42NjksMCwwLDAsLjctLjZMMjUuNywxN2wzLjUsMjAuMWEuODQ5Ljg0OSwwLDAsMCwuOC43Ljg3MS44NzEsMCwwLDAsLjgtLjZsMy45LTE2LjdMMzcsMjYuMWEuNzkyLjc5MiwwLDAsMCwuOC41SDQ5VjI0LjlaIi8+PHBhdGggY2xhc3M9ImNscy0yIiBkPSJNMzguNSw0NmgtMjFhMS4yODQsMS4yODQsMCwwLDAtMSwuNCwxLjQzMywxLjQzMywwLDAsMC0uNSwxLjEsMS4zODksMS4zODksMCwwLDAsLjUsMSwxLjU5MSwxLjU5MSwwLDAsMCwxLC41aDIxYTEuNjA2LDEuNjA2LDAsMCwwLDEuMS0uNSwxLjQzMywxLjQzMywwLDAsMCwuNC0xQTEuMzI2LDEuMzI2LDAsMCwwLDM4LjUsNDZaIi8+PC9zdmc+;" vertex="1" parent="1">
          <mxGeometry x="280" y="2520" width="48" height="42" as="geometry" />
        </mxCell>
      </root>
    </mxGraphModel>
  </diagram>
</mxfile>
